<svg width="30" height="30" viewBox="0 0 30 30" fill="none" xmlns="http://www.w3.org/2000/svg">
<rect x="0.5" y="0.5" width="29" height="29" rx="14.5" fill="white" stroke="#E5EBF1"/>
<mask id="mask0_302_622" style="mask-type:alpha" maskUnits="userSpaceOnUse" x="7" y="7" width="16" height="16">
<rect x="7" y="7" width="16" height="16" fill="#5C6978"/>
</mask>
<g mask="url(#mask0_302_622)">
<path d="M14.9999 21.4955L14.0333 20.6231C12.2888 19.0574 10.9026 17.6956 9.87459 16.5378C8.84703 15.3805 8.33325 14.1587 8.33325 12.8726C8.33325 11.8213 8.68325 10.9433 9.38325 10.2387C10.0833 9.53412 10.9555 9.18182 11.9999 9.18182C12.5888 9.18182 13.1444 9.30753 13.6666 9.55895C14.1888 9.81082 14.6333 10.1548 14.9999 10.591C15.3666 10.1548 15.811 9.81082 16.3333 9.55895C16.8555 9.30753 17.411 9.18182 17.9999 9.18182C19.0444 9.18182 19.9166 9.53412 20.6166 10.2387C21.3166 10.9433 21.6666 11.8213 21.6666 12.8726C21.6666 14.1587 21.1528 15.3805 20.1253 16.5378C19.0973 17.6956 17.711 19.0574 15.9666 20.6231L14.9999 21.4955Z" fill="url(#paint0_linear_302_622)"/>
</g>
<defs>
<linearGradient id="paint0_linear_302_622" x1="8.33325" y1="15.3387" x2="21.6666" y2="15.3387" gradientUnits="userSpaceOnUse">
<stop stop-color="#FDDC57"/>
<stop offset="1" stop-color="#FF934E"/>
</linearGradient>
</defs>
</svg>
