<svg width="20" height="21" viewBox="0 0 20 21" fill="none" xmlns="http://www.w3.org/2000/svg">
<mask id="mask0_1_3491" style="mask-type:alpha" maskUnits="userSpaceOnUse" x="0" y="0" width="20" height="21">
<rect y="0.273682" width="20" height="20" fill="#D9D9D9"/>
</mask>
<g mask="url(#mask0_1_3491)">
<path d="M3.33317 16.9404C2.87484 16.9404 2.48262 16.7773 2.1565 16.4512C1.82984 16.1246 1.6665 15.7321 1.6665 15.2737V5.27372C1.6665 4.81539 1.82984 4.42317 2.1565 4.09706C2.48262 3.77039 2.87484 3.60706 3.33317 3.60706H16.6665C17.1248 3.60706 17.5173 3.77039 17.844 4.09706C18.1701 4.42317 18.3332 4.81539 18.3332 5.27372V15.2737C18.3332 15.7321 18.1701 16.1246 17.844 16.4512C17.5173 16.7773 17.1248 16.9404 16.6665 16.9404H3.33317ZM9.99984 11.1071L3.33317 6.94039V15.2737H16.6665V6.94039L9.99984 11.1071ZM9.99984 9.44039L16.6665 5.27372H3.33317L9.99984 9.44039Z" fill="#334356"/>
</g>
</svg>
