<svg width="20" height="20" viewBox="0 0 20 20" fill="none" xmlns="http://www.w3.org/2000/svg">
<mask id="mask0_1_3501" style="mask-type:alpha" maskUnits="userSpaceOnUse" x="0" y="0" width="20" height="20">
<rect width="20" height="20" fill="#D9D9D9"/>
</mask>
<g mask="url(#mask0_1_3501)">
<path d="M10.0002 0.833374C11.1529 0.833374 12.1357 1.23949 12.9485 2.05171C13.7607 2.86449 14.1668 3.84726 14.1668 5.00004V6.66671H15.0002C15.4585 6.66671 15.851 6.82976 16.1777 7.15587C16.5038 7.48254 16.6668 7.87504 16.6668 8.33337V16.6667C16.6668 17.125 16.5038 17.5175 16.1777 17.8442C15.851 18.1703 15.4585 18.3334 15.0002 18.3334H5.00016C4.54183 18.3334 4.14961 18.1703 3.8235 17.8442C3.49683 17.5175 3.3335 17.125 3.3335 16.6667V8.33337C3.3335 7.87504 3.49683 7.48254 3.8235 7.15587C4.14961 6.82976 4.54183 6.66671 5.00016 6.66671H5.8335V5.00004C5.8335 3.84726 6.23989 2.86449 7.05266 2.05171C7.86489 1.23949 8.84739 0.833374 10.0002 0.833374ZM10.0002 2.50004C9.30572 2.50004 8.71544 2.7431 8.22933 3.22921C7.74322 3.71532 7.50016 4.3056 7.50016 5.00004V6.66671H12.5002V5.00004C12.5002 4.3056 12.2571 3.71532 11.771 3.22921C11.2849 2.7431 10.6946 2.50004 10.0002 2.50004ZM5.00016 16.6667H15.0002V8.33337H5.00016V16.6667ZM10.0002 10.8334C9.54183 10.8334 9.14961 10.9964 8.8235 11.3225C8.49683 11.6492 8.3335 12.0417 8.3335 12.5C8.3335 12.9584 8.49683 13.3509 8.8235 13.6775C9.14961 14.0037 9.54183 14.1667 10.0002 14.1667C10.4585 14.1667 10.851 14.0037 11.1777 13.6775C11.5038 13.3509 11.6668 12.9584 11.6668 12.5C11.6668 12.0417 11.5038 11.6492 11.1777 11.3225C10.851 10.9964 10.4585 10.8334 10.0002 10.8334Z" fill="#334356"/>
</g>
</svg>
